<mxfile host="app.diagrams.net" modified="2021-12-14T17:42:43.367Z" agent="5.0 (Windows NT 10.0; Win64; x64) AppleWebKit/537.36 (KHTML, like Gecko) Chrome/96.0.4664.93 Safari/537.36" etag="jErLcxpKxGD4MdvnAsAy" version="15.9.6" type="github">
  <diagram id="yOHY_HUELuu3EH0EMmsn" name="第 1 页">
    <mxGraphModel dx="1695" dy="911" grid="1" gridSize="10" guides="1" tooltips="1" connect="1" arrows="1" fold="1" page="1" pageScale="1" pageWidth="827" pageHeight="1169" math="0" shadow="0">
      <root>
        <mxCell id="0" />
        <mxCell id="1" parent="0" />
        <mxCell id="5-_Im2_VNosuUwmE16bU-2" value="UI" style="rounded=1;whiteSpace=wrap;html=1;" vertex="1" parent="1">
          <mxGeometry x="180" y="230" width="120" height="60" as="geometry" />
        </mxCell>
        <mxCell id="5-_Im2_VNosuUwmE16bU-3" value="Game" style="rounded=1;whiteSpace=wrap;html=1;" vertex="1" parent="1">
          <mxGeometry x="480" y="230" width="120" height="60" as="geometry" />
        </mxCell>
        <mxCell id="5-_Im2_VNosuUwmE16bU-6" value="StartGame" style="ellipse;whiteSpace=wrap;html=1;aspect=fixed;" vertex="1" parent="1">
          <mxGeometry x="130" y="360" width="80" height="80" as="geometry" />
        </mxCell>
        <mxCell id="5-_Im2_VNosuUwmE16bU-8" value="" style="endArrow=none;html=1;rounded=0;entryX=0.5;entryY=1;entryDx=0;entryDy=0;exitX=0.5;exitY=0;exitDx=0;exitDy=0;" edge="1" parent="1" source="5-_Im2_VNosuUwmE16bU-6" target="5-_Im2_VNosuUwmE16bU-2">
          <mxGeometry width="50" height="50" relative="1" as="geometry">
            <mxPoint x="110" y="360" as="sourcePoint" />
            <mxPoint x="160" y="310" as="targetPoint" />
          </mxGeometry>
        </mxCell>
        <mxCell id="5-_Im2_VNosuUwmE16bU-9" value="GameOver" style="ellipse;whiteSpace=wrap;html=1;aspect=fixed;" vertex="1" parent="1">
          <mxGeometry x="270" y="360" width="80" height="80" as="geometry" />
        </mxCell>
        <mxCell id="5-_Im2_VNosuUwmE16bU-10" value="" style="endArrow=none;html=1;rounded=0;entryX=0.5;entryY=1;entryDx=0;entryDy=0;exitX=0.5;exitY=0;exitDx=0;exitDy=0;" edge="1" parent="1" source="5-_Im2_VNosuUwmE16bU-9" target="5-_Im2_VNosuUwmE16bU-2">
          <mxGeometry width="50" height="50" relative="1" as="geometry">
            <mxPoint x="180" y="370" as="sourcePoint" />
            <mxPoint x="250" y="300" as="targetPoint" />
          </mxGeometry>
        </mxCell>
        <mxCell id="5-_Im2_VNosuUwmE16bU-15" value="" style="endArrow=none;html=1;rounded=0;entryX=0.5;entryY=1;entryDx=0;entryDy=0;exitX=0.5;exitY=0;exitDx=0;exitDy=0;" edge="1" parent="1" target="5-_Im2_VNosuUwmE16bU-6">
          <mxGeometry width="50" height="50" relative="1" as="geometry">
            <mxPoint x="170" y="480" as="sourcePoint" />
            <mxPoint x="130" y="430" as="targetPoint" />
          </mxGeometry>
        </mxCell>
        <mxCell id="5-_Im2_VNosuUwmE16bU-16" value="ButtonStart（委托）" style="ellipse;whiteSpace=wrap;html=1;aspect=fixed;" vertex="1" parent="1">
          <mxGeometry x="130" y="480" width="80" height="80" as="geometry" />
        </mxCell>
        <mxCell id="5-_Im2_VNosuUwmE16bU-17" value="Enemy" style="ellipse;whiteSpace=wrap;html=1;aspect=fixed;" vertex="1" parent="1">
          <mxGeometry x="430" y="360" width="80" height="80" as="geometry" />
        </mxCell>
        <mxCell id="5-_Im2_VNosuUwmE16bU-20" value="" style="curved=1;endArrow=classic;html=1;rounded=0;entryX=0;entryY=1;entryDx=0;entryDy=0;exitX=0;exitY=0.5;exitDx=0;exitDy=0;" edge="1" parent="1" source="5-_Im2_VNosuUwmE16bU-16" target="5-_Im2_VNosuUwmE16bU-6">
          <mxGeometry width="50" height="50" relative="1" as="geometry">
            <mxPoint x="50" y="490" as="sourcePoint" />
            <mxPoint x="100" y="440" as="targetPoint" />
            <Array as="points">
              <mxPoint x="100" y="490" />
              <mxPoint x="50" y="440" />
            </Array>
          </mxGeometry>
        </mxCell>
        <mxCell id="5-_Im2_VNosuUwmE16bU-21" value="隐藏" style="edgeLabel;html=1;align=center;verticalAlign=middle;resizable=0;points=[];" vertex="1" connectable="0" parent="5-_Im2_VNosuUwmE16bU-20">
          <mxGeometry x="-0.3626" relative="1" as="geometry">
            <mxPoint y="1" as="offset" />
          </mxGeometry>
        </mxCell>
        <mxCell id="5-_Im2_VNosuUwmE16bU-23" value="Enemys" style="ellipse;whiteSpace=wrap;html=1;aspect=fixed;" vertex="1" parent="1">
          <mxGeometry x="430" y="465" width="80" height="80" as="geometry" />
        </mxCell>
        <mxCell id="5-_Im2_VNosuUwmE16bU-28" value="" style="endArrow=none;html=1;rounded=0;entryX=0.5;entryY=1;entryDx=0;entryDy=0;exitX=0.5;exitY=0;exitDx=0;exitDy=0;" edge="1" parent="1" source="5-_Im2_VNosuUwmE16bU-17" target="5-_Im2_VNosuUwmE16bU-3">
          <mxGeometry width="50" height="50" relative="1" as="geometry">
            <mxPoint x="400" y="350" as="sourcePoint" />
            <mxPoint x="450" y="300" as="targetPoint" />
          </mxGeometry>
        </mxCell>
        <mxCell id="5-_Im2_VNosuUwmE16bU-29" value="" style="endArrow=none;html=1;rounded=0;entryX=0.5;entryY=1;entryDx=0;entryDy=0;exitX=0.5;exitY=0;exitDx=0;exitDy=0;" edge="1" parent="1" source="5-_Im2_VNosuUwmE16bU-23" target="5-_Im2_VNosuUwmE16bU-17">
          <mxGeometry width="50" height="50" relative="1" as="geometry">
            <mxPoint x="360" y="610" as="sourcePoint" />
            <mxPoint x="410" y="560" as="targetPoint" />
          </mxGeometry>
        </mxCell>
        <mxCell id="5-_Im2_VNosuUwmE16bU-32" value="" style="endArrow=classic;html=1;rounded=0;exitX=0;exitY=0.5;exitDx=0;exitDy=0;entryX=1;entryY=1;entryDx=0;entryDy=0;" edge="1" parent="1" source="5-_Im2_VNosuUwmE16bU-23" target="5-_Im2_VNosuUwmE16bU-9">
          <mxGeometry width="50" height="50" relative="1" as="geometry">
            <mxPoint x="330" y="610" as="sourcePoint" />
            <mxPoint x="380" y="560" as="targetPoint" />
          </mxGeometry>
        </mxCell>
        <mxCell id="5-_Im2_VNosuUwmE16bU-33" value="显示" style="edgeLabel;html=1;align=center;verticalAlign=middle;resizable=0;points=[];" vertex="1" connectable="0" parent="5-_Im2_VNosuUwmE16bU-32">
          <mxGeometry x="-0.1539" relative="1" as="geometry">
            <mxPoint as="offset" />
          </mxGeometry>
        </mxCell>
        <mxCell id="5-_Im2_VNosuUwmE16bU-34" value="" style="endArrow=classic;html=1;rounded=0;exitX=1;exitY=0.5;exitDx=0;exitDy=0;entryX=0;entryY=1;entryDx=0;entryDy=0;" edge="1" parent="1" source="5-_Im2_VNosuUwmE16bU-16" target="5-_Im2_VNosuUwmE16bU-17">
          <mxGeometry width="50" height="50" relative="1" as="geometry">
            <mxPoint x="300" y="530" as="sourcePoint" />
            <mxPoint x="350" y="480" as="targetPoint" />
          </mxGeometry>
        </mxCell>
        <mxCell id="5-_Im2_VNosuUwmE16bU-35" value="显示" style="edgeLabel;html=1;align=center;verticalAlign=middle;resizable=0;points=[];" vertex="1" connectable="0" parent="5-_Im2_VNosuUwmE16bU-34">
          <mxGeometry x="-0.2483" relative="1" as="geometry">
            <mxPoint as="offset" />
          </mxGeometry>
        </mxCell>
        <mxCell id="5-_Im2_VNosuUwmE16bU-36" value="UI" style="rounded=1;whiteSpace=wrap;html=1;" vertex="1" parent="1">
          <mxGeometry x="170" y="580" width="120" height="60" as="geometry" />
        </mxCell>
        <mxCell id="5-_Im2_VNosuUwmE16bU-37" value="Game" style="rounded=1;whiteSpace=wrap;html=1;" vertex="1" parent="1">
          <mxGeometry x="470" y="580" width="120" height="60" as="geometry" />
        </mxCell>
        <mxCell id="5-_Im2_VNosuUwmE16bU-38" value="StartGame" style="ellipse;whiteSpace=wrap;html=1;aspect=fixed;" vertex="1" parent="1">
          <mxGeometry x="120" y="710" width="80" height="80" as="geometry" />
        </mxCell>
        <mxCell id="5-_Im2_VNosuUwmE16bU-39" value="" style="endArrow=none;html=1;rounded=0;entryX=0.5;entryY=1;entryDx=0;entryDy=0;exitX=0.5;exitY=0;exitDx=0;exitDy=0;" edge="1" parent="1" source="5-_Im2_VNosuUwmE16bU-38" target="5-_Im2_VNosuUwmE16bU-36">
          <mxGeometry width="50" height="50" relative="1" as="geometry">
            <mxPoint x="99.99999999999999" y="710" as="sourcePoint" />
            <mxPoint x="150" y="660" as="targetPoint" />
          </mxGeometry>
        </mxCell>
        <mxCell id="5-_Im2_VNosuUwmE16bU-40" value="GameOver" style="ellipse;whiteSpace=wrap;html=1;aspect=fixed;" vertex="1" parent="1">
          <mxGeometry x="260" y="710" width="80" height="80" as="geometry" />
        </mxCell>
        <mxCell id="5-_Im2_VNosuUwmE16bU-41" value="" style="endArrow=none;html=1;rounded=0;entryX=0.5;entryY=1;entryDx=0;entryDy=0;exitX=0.5;exitY=0;exitDx=0;exitDy=0;" edge="1" parent="1" source="5-_Im2_VNosuUwmE16bU-40" target="5-_Im2_VNosuUwmE16bU-36">
          <mxGeometry width="50" height="50" relative="1" as="geometry">
            <mxPoint x="170" y="720" as="sourcePoint" />
            <mxPoint x="240" y="650" as="targetPoint" />
          </mxGeometry>
        </mxCell>
        <mxCell id="5-_Im2_VNosuUwmE16bU-42" value="" style="endArrow=none;html=1;rounded=0;entryX=0.5;entryY=1;entryDx=0;entryDy=0;exitX=0.5;exitY=0;exitDx=0;exitDy=0;" edge="1" parent="1" target="5-_Im2_VNosuUwmE16bU-38">
          <mxGeometry width="50" height="50" relative="1" as="geometry">
            <mxPoint x="160" y="830" as="sourcePoint" />
            <mxPoint x="120" y="780" as="targetPoint" />
          </mxGeometry>
        </mxCell>
        <mxCell id="5-_Im2_VNosuUwmE16bU-54" style="edgeStyle=orthogonalEdgeStyle;rounded=0;orthogonalLoop=1;jettySize=auto;html=1;entryX=0.5;entryY=0;entryDx=0;entryDy=0;" edge="1" parent="1" source="5-_Im2_VNosuUwmE16bU-43" target="5-_Im2_VNosuUwmE16bU-53">
          <mxGeometry relative="1" as="geometry" />
        </mxCell>
        <mxCell id="5-_Im2_VNosuUwmE16bU-60" value="触发" style="edgeLabel;html=1;align=center;verticalAlign=middle;resizable=0;points=[];" vertex="1" connectable="0" parent="5-_Im2_VNosuUwmE16bU-54">
          <mxGeometry x="-0.274" y="-2" relative="1" as="geometry">
            <mxPoint as="offset" />
          </mxGeometry>
        </mxCell>
        <mxCell id="5-_Im2_VNosuUwmE16bU-43" value="ButtonStart（委托）" style="ellipse;whiteSpace=wrap;html=1;aspect=fixed;" vertex="1" parent="1">
          <mxGeometry x="120" y="830" width="80" height="80" as="geometry" />
        </mxCell>
        <mxCell id="5-_Im2_VNosuUwmE16bU-44" value="Enemy" style="ellipse;whiteSpace=wrap;html=1;aspect=fixed;" vertex="1" parent="1">
          <mxGeometry x="420" y="710" width="80" height="80" as="geometry" />
        </mxCell>
        <mxCell id="5-_Im2_VNosuUwmE16bU-64" style="edgeStyle=orthogonalEdgeStyle;rounded=0;orthogonalLoop=1;jettySize=auto;html=1;entryX=0.5;entryY=0;entryDx=0;entryDy=0;" edge="1" parent="1" source="5-_Im2_VNosuUwmE16bU-46" target="5-_Im2_VNosuUwmE16bU-65">
          <mxGeometry relative="1" as="geometry">
            <mxPoint x="460" y="944.9999999999998" as="targetPoint" />
          </mxGeometry>
        </mxCell>
        <mxCell id="5-_Im2_VNosuUwmE16bU-68" value="触发" style="edgeLabel;html=1;align=center;verticalAlign=middle;resizable=0;points=[];" vertex="1" connectable="0" parent="5-_Im2_VNosuUwmE16bU-64">
          <mxGeometry x="-0.2519" y="1" relative="1" as="geometry">
            <mxPoint as="offset" />
          </mxGeometry>
        </mxCell>
        <mxCell id="5-_Im2_VNosuUwmE16bU-46" value="Enemys" style="ellipse;whiteSpace=wrap;html=1;aspect=fixed;" vertex="1" parent="1">
          <mxGeometry x="420" y="830" width="80" height="80" as="geometry" />
        </mxCell>
        <mxCell id="5-_Im2_VNosuUwmE16bU-47" value="" style="endArrow=none;html=1;rounded=0;entryX=0.5;entryY=1;entryDx=0;entryDy=0;exitX=0.5;exitY=0;exitDx=0;exitDy=0;" edge="1" parent="1" source="5-_Im2_VNosuUwmE16bU-44" target="5-_Im2_VNosuUwmE16bU-37">
          <mxGeometry width="50" height="50" relative="1" as="geometry">
            <mxPoint x="390" y="700" as="sourcePoint" />
            <mxPoint x="440" y="650" as="targetPoint" />
          </mxGeometry>
        </mxCell>
        <mxCell id="5-_Im2_VNosuUwmE16bU-48" value="" style="endArrow=none;html=1;rounded=0;entryX=0.5;entryY=1;entryDx=0;entryDy=0;exitX=0.5;exitY=0;exitDx=0;exitDy=0;" edge="1" parent="1" source="5-_Im2_VNosuUwmE16bU-46" target="5-_Im2_VNosuUwmE16bU-44">
          <mxGeometry width="50" height="50" relative="1" as="geometry">
            <mxPoint x="350" y="960" as="sourcePoint" />
            <mxPoint x="400" y="910" as="targetPoint" />
          </mxGeometry>
        </mxCell>
        <mxCell id="5-_Im2_VNosuUwmE16bU-53" value="GameStartEvent.Trigger()" style="rounded=0;whiteSpace=wrap;html=1;" vertex="1" parent="1">
          <mxGeometry x="70" y="965" width="180" height="60" as="geometry" />
        </mxCell>
        <mxCell id="5-_Im2_VNosuUwmE16bU-56" value="" style="endArrow=none;dashed=1;html=1;rounded=0;entryX=0;entryY=0.5;entryDx=0;entryDy=0;exitX=0;exitY=0.5;exitDx=0;exitDy=0;" edge="1" parent="1" source="5-_Im2_VNosuUwmE16bU-43" target="5-_Im2_VNosuUwmE16bU-38">
          <mxGeometry width="50" height="50" relative="1" as="geometry">
            <mxPoint x="40" y="815" as="sourcePoint" />
            <mxPoint x="90" y="765" as="targetPoint" />
          </mxGeometry>
        </mxCell>
        <mxCell id="5-_Im2_VNosuUwmE16bU-57" value="父引用子" style="edgeLabel;html=1;align=center;verticalAlign=middle;resizable=0;points=[];" vertex="1" connectable="0" parent="5-_Im2_VNosuUwmE16bU-56">
          <mxGeometry x="0.173" y="-1" relative="1" as="geometry">
            <mxPoint as="offset" />
          </mxGeometry>
        </mxCell>
        <mxCell id="5-_Im2_VNosuUwmE16bU-58" value="" style="endArrow=none;dashed=1;html=1;rounded=0;entryX=1;entryY=1;entryDx=0;entryDy=0;exitX=1;exitY=0;exitDx=0;exitDy=0;" edge="1" parent="1" source="5-_Im2_VNosuUwmE16bU-16" target="5-_Im2_VNosuUwmE16bU-6">
          <mxGeometry width="50" height="50" relative="1" as="geometry">
            <mxPoint x="70" y="600" as="sourcePoint" />
            <mxPoint x="120" y="550" as="targetPoint" />
          </mxGeometry>
        </mxCell>
        <mxCell id="5-_Im2_VNosuUwmE16bU-59" value="父引用子" style="edgeLabel;html=1;align=center;verticalAlign=middle;resizable=0;points=[];" vertex="1" connectable="0" parent="5-_Im2_VNosuUwmE16bU-58">
          <mxGeometry x="0.224" y="1" relative="1" as="geometry">
            <mxPoint as="offset" />
          </mxGeometry>
        </mxCell>
        <mxCell id="5-_Im2_VNosuUwmE16bU-62" value="" style="endArrow=classic;html=1;rounded=0;exitX=0.044;exitY=0.971;exitDx=0;exitDy=0;exitPerimeter=0;entryX=0.976;entryY=-0.009;entryDx=0;entryDy=0;entryPerimeter=0;" edge="1" parent="1" source="5-_Im2_VNosuUwmE16bU-37" target="5-_Im2_VNosuUwmE16bU-53">
          <mxGeometry width="50" height="50" relative="1" as="geometry">
            <mxPoint x="340" y="865" as="sourcePoint" />
            <mxPoint x="390" y="815" as="targetPoint" />
          </mxGeometry>
        </mxCell>
        <mxCell id="5-_Im2_VNosuUwmE16bU-63" value="订阅" style="edgeLabel;html=1;align=center;verticalAlign=middle;resizable=0;points=[];" vertex="1" connectable="0" parent="5-_Im2_VNosuUwmE16bU-62">
          <mxGeometry x="0.1073" y="-2" relative="1" as="geometry">
            <mxPoint as="offset" />
          </mxGeometry>
        </mxCell>
        <mxCell id="5-_Im2_VNosuUwmE16bU-65" value="GameOverEvent.Trigger()" style="rounded=0;whiteSpace=wrap;html=1;" vertex="1" parent="1">
          <mxGeometry x="370" y="965" width="180" height="60" as="geometry" />
        </mxCell>
        <mxCell id="5-_Im2_VNosuUwmE16bU-69" value="" style="endArrow=classic;html=1;rounded=0;exitX=1;exitY=1;exitDx=0;exitDy=0;entryX=0.25;entryY=0;entryDx=0;entryDy=0;" edge="1" parent="1" source="5-_Im2_VNosuUwmE16bU-36" target="5-_Im2_VNosuUwmE16bU-65">
          <mxGeometry width="50" height="50" relative="1" as="geometry">
            <mxPoint x="350" y="675" as="sourcePoint" />
            <mxPoint x="400" y="625" as="targetPoint" />
            <Array as="points">
              <mxPoint x="400" y="805" />
            </Array>
          </mxGeometry>
        </mxCell>
        <mxCell id="5-_Im2_VNosuUwmE16bU-70" value="订阅" style="edgeLabel;html=1;align=center;verticalAlign=middle;resizable=0;points=[];" vertex="1" connectable="0" parent="5-_Im2_VNosuUwmE16bU-69">
          <mxGeometry x="0.3283" y="1" relative="1" as="geometry">
            <mxPoint as="offset" />
          </mxGeometry>
        </mxCell>
      </root>
    </mxGraphModel>
  </diagram>
</mxfile>
